<mxfile host="app.diagrams.net" modified="2024-03-04T02:03:02.582Z" agent="Mozilla/5.0 (Macintosh; Intel Mac OS X 10.15; rv:122.0) Gecko/20100101 Firefox/122.0" version="24.0.1" etag="2sNeUrEokrQb0FQj7d-T" type="github">
  <diagram name="PÃ¡gina-1" id="sFA8dqPqH6DbGmIJpUaq">
    <mxGraphModel>
      <root>
        <mxCell id="0" />
        <mxCell id="1" parent="0" />
      </root>
    </mxGraphModel>
  </diagram>
</mxfile>
